<?xml version="1.0" encoding="UTF-8" standalone="no"?>
<svg
   xmlns:dc="http://purl.org/dc/elements/1.1/"
   xmlns:cc="http://creativecommons.org/ns#"
   xmlns:rdf="http://www.w3.org/1999/02/22-rdf-syntax-ns#"
   xmlns:svg="http://www.w3.org/2000/svg"
   xmlns="http://www.w3.org/2000/svg"
   xmlns:sodipodi="http://sodipodi.sourceforge.net/DTD/sodipodi-0.dtd"
   xmlns:inkscape="http://www.inkscape.org/namespaces/inkscape"
   viewBox="0 0 668.24939 419.75543"
   id="svg2"
   version="1.1"
   inkscape:version="0.91 r13725"
   sodipodi:docname="header-156421.svg">
  <metadata
     id="metadata44">
    <rdf:RDF>
      <cc:Work
         rdf:about="">
        <dc:format>image/svg+xml</dc:format>
        <dc:type
           rdf:resource="http://purl.org/dc/dcmitype/StillImage" />
      </cc:Work>
    </rdf:RDF>
  </metadata>
  <sodipodi:namedview
     pagecolor="#ffffff"
     bordercolor="#666666"
     borderopacity="1"
     objecttolerance="10"
     gridtolerance="10"
     guidetolerance="10"
     inkscape:pageopacity="0"
     inkscape:pageshadow="2"
     inkscape:window-width="1366"
     inkscape:window-height="739"
     id="namedview42"
     showgrid="false"
     inkscape:zoom="0.5566784"
     inkscape:cx="0.89818466"
     inkscape:cy="209.87772"
     inkscape:window-x="0"
     inkscape:window-y="0"
     inkscape:window-maximized="1"
     inkscape:current-layer="g18" />
  <defs
     id="defs4">
    <filter
       id="b">
      <feGaussianBlur
         stdDeviation="3.9065"
         id="feGaussianBlur7" />
    </filter>
    <radialGradient
       id="a"
       cx="526.87"
       cy="40.794"
       r="472.24"
       gradientTransform="matrix(.024775 .8614 -1.8369 .052844 355.24 38.88)"
       gradientUnits="userSpaceOnUse">
      <stop
         stop-color="#deaa87"
         offset="0"
         id="stop10" />
      <stop
         stop-color="#e9c6af"
         offset=".3786"
         id="stop12" />
      <stop
         stop-color="#deaa87"
         offset=".5781"
         id="stop14" />
      <stop
         stop-color="#d38d5f"
         offset="1"
         id="stop16" />
    </radialGradient>
  </defs>
  <g
     transform="translate(-485.87 -303.87)"
     id="g18">
    <g
       id="g3372"
       transform="matrix(0.44523156,0,0,0.44523156,628.60408,384.5409)"
       inkscape:export-xdpi="200.03157"
       inkscape:export-ydpi="200.03157">
      <path
         id="path24"
         d="m 302.63,358.83 c -5.9854,9.6012 -11.198,22.469 -18.266,30.157 -6.6472,-7.3721 -9.0048,-25.951 -22.18,-24.044 -15.538,7.7514 -24.711,25.178 -38.707,33.336 -4.5377,-7.3787 -17.325,-7.3134 -16.787,2.9342 -1.7516,6.4821 1.1953,20.135 -10.09,13.693 -10.194,-1.1319 -24.456,-11.277 -32.879,-3.0972 -2.8288,7.3692 16.735,17.986 0.70927,14.717 -17.024,-0.69018 -34.266,-3.5998 -51.245,-2.0832 -8.9798,6.8851 4.7622,16.261 8.6981,22.577 -16.652,-3.1476 -34.604,-12.797 -51.232,-11.492 -7.5257,8.6074 8.7056,18.299 12.699,26.082 10.769,8.972 -8.9464,5.0632 -14.613,6.1944 -9.0231,1.5237 -25.958,-3.0818 -29.313,7.7431 -1.2075,6.2236 17.038,8.4257 6.3496,8.3951 -9.3191,1.3988 -29.441,-5.4227 -30.704,7.8246 5.3714,10.069 22.557,12.87 28.53,19.154 -10.73,1.6947 -6.663,14.888 3.3053,14.182 16.12,0.2843 3.3325,3.2986 -5.2073,6.3157 -6.893,1.373 -22.469,8.9687 -11.145,15.283 8.737,3.5292 26.684,1.6352 30.183,4.2383 -15.576,6.1115 -34.835,6.83 -47.84,17.279 -0.92186,11.77 18.52,8.3609 26.268,10.514 7.6599,0.48283 21.375,1.0495 7.0455,5.0534 -9.9555,0.76928 -18.331,17.351 -3.7402,16.627 6.5498,0.29329 28.049,-6.3704 23.485,-1.1411 -7.5684,9.0391 -24.863,14.058 -25.572,26.652 10.282,7.5765 26.362,0.41903 38.62,1.1411 5.6597,0.35489 29.515,-5.1705 17.048,1.7116 -8.466,2.6802 -14.279,17.995 -0.60887,16.464 14.497,-2.0556 31.627,-7.9013 44.447,-8.3951 -2.3666,7.8609 -15.666,17.976 -7.6544,25.674 14.045,-0.79223 24.351,-14.151 37.054,-19.398 0.0881,9.6668 -11.987,23.934 -1.4787,30.565 21.323,-6.6535 40.809,-20.821 60.713,-28.853 1.5918,7.1046 -3.5279,25.303 9.394,23.311 9.8289,-4.8656 19.329,-15.056 27.486,-18.746 3.7676,7.7559 -2.6066,29.386 12.525,25.919 9.7479,-3.6141 8.0091,-24.385 20.635,-15.453 14.051,2.8983 28.924,15.185 43.21,11.133 3.0425,-10.7 -4.363,-21.778 -4.697,-32.684 18.196,4.8231 35.468,12.89 54.015,16.301 11.467,-1.6285 -5.3912,-19.337 7.4462,-9.3764 6.9879,4.8442 24.588,16.379 26.824,1.8778 1.9683,-9.8182 0.50045,-19.889 2.0006,-29.75 12.54,0.68978 25.906,9.4547 37.924,4.9719 5.9392,-8.0325 -12.369,-15.65 -10.873,-19.398 18.9,0.73473 38.997,9.2557 57.234,5.5424 3.0729,-8.6252 -5.0956,-17.416 -7.3064,-25.674 12.31,-0.77284 27.777,6.9528 38.011,3.1787 5.1415,-10.228 -10.274,-19.72 -13.618,-29.023 0.42439,-7.6964 38.704,3.1491 30.319,-11.893 -8.853,-3.753 -18.117,-6.7585 -26.616,-11.166 12.936,-2.7088 27.029,0.33555 39.403,-3.5863 4.5772,-12.315 -40.279,-15.918 -20.267,-21.273 8.1763,-4.6448 26.889,-2.0311 27.573,-13.53 -7.7968,-9.9919 -26.285,-4.7915 -34.706,-7.7431 9.8613,-6.7316 27.172,-7.0499 32.183,-18.42 -5.1088,-11.17 -23.53,-5.3681 -33.749,-8.1506 -4.413,-1.5212 -27.289,0.75353 -21.136,-3.4232 5.8719,-4.66 23.182,-7.9415 17.831,-17.687 -9.5692,-4.7986 -27,4.9116 -32.531,1.8746 19.534,-8.9283 10.1,-21.666 -8.5275,-14.574 -6.5135,-0.39184 -34.467,6.0536 -16.697,-2.9498 9.1014,-1.9457 11.406,-16.328 -0.43489,-13.775 -13.665,1.9163 -29.153,9.0232 -40.62,11.003 5.703,-8.7276 24.166,-14.257 20.702,-26 -13.241,-4.7112 -29.383,8.6084 -40.533,7.0095 -3.8308,-11.605 -1.56,-26.422 -9.6549,-36.189 -17.226,1.738 -34.071,18.591 -49.318,19.887 -3.3485,-10.478 -16.641,-0.12843 -21.31,4.1568 -11.974,-10.603 -21.221,-24.9 -34.793,-33.336 l -2.4486,1.2403 -0.76973,0.38987 z"
         transform="translate(523.26,-11.112)"
         inkscape:connector-curvature="0"
         style="opacity:0.87190001;fill:#ffd42a" />
      <path
         transform="translate(523.26,-11.112)"
         id="path26"
         d="m 502.13,618.3 c 0,0 -5.7204,-1.0153 -13.02,-2.2532 -3.7063,-0.62852 -7.5551,-1.4617 -12,-2.2155 -4.0901,-0.69362 -8.799,-1.309 -12.889,-2.0026 -4.4452,-0.75383 -7.8166,-1.3739 -11.523,-2.0024 -7.2979,-1.2376 -12.674,-2.7596 -12.674,-2.7596 0,0 2.3818,3.442 5.787,7.0818 1.8117,1.9365 3.1014,3.5475 5.1616,5.7496 2.0602,2.2021 5.0933,4.4558 6.9052,6.3925 3.4054,3.6399 6.9622,6.3416 6.9622,6.3416 0,0 -6.1982,-0.70735 -12.838,-2.0564 -3.5329,-0.71775 -7.5773,-1.6528 -11.595,-2.4689 -4.0177,-0.8161 -7.7744,-1.3215 -11.308,-2.0393 -6.6405,-1.3491 -11.297,-2.7126 -11.297,-2.7126 0,0 -0.75852,3.1328 -0.95136,7.4981 -0.0951,2.1528 0.13861,4.1591 0.0211,6.8191 -0.10392,2.3526 -0.43448,5.23 -0.54401,7.7093 -0.10953,2.4793 0.0258,5.1331 -0.0781,7.4857 -0.11751,2.6603 -0.1305,5.2368 -0.2256,7.3898 -0.19284,4.3649 -0.55157,7.0842 -0.55157,7.0842 0,0 -3.5759,-1.7787 -8.2271,-4.858 -2.4746,-1.6383 -5.5104,-4.2332 -8.3244,-6.0962 -2.814,-1.863 -6.4691,-3.5176 -8.9439,-5.1561 -4.6513,-3.0794 -6.3909,-6.091 -6.3909,-6.091 0,0 0.38516,3.6106 2.0833,7.193 0.9921,2.0929 2.0283,3.7888 3.0204,5.8817 1.6982,3.5824 3.1655,7.2472 3.1655,7.2472 0,0 -3.4361,-1.4645 -9.483,-3.6372 -2.9822,-1.0716 -5.9201,-2.4758 -9.6048,-3.7997 -3.2588,-1.171 -7.2177,-2.8264 -10.652,-4.0605 -3.4343,-1.2341 -7.7247,-1.7362 -10.984,-2.9072 -3.6851,-1.3241 -6.7229,-2.729 -9.7053,-3.8006 -6.0464,-2.1726 -10.083,-3.6532 -10.083,-3.6532 0,0 0.58363,3.2115 1.4877,7.8359 0.45907,2.3481 0.66023,5.3141 1.2108,8.1304 0.50662,2.5913 1.5368,5.025 2.0434,7.6162 0.55058,2.8162 0.66185,5.7596 1.1209,8.1075 0.90394,4.6236 1.5256,7.6806 1.5256,7.6806 0,0 -3.1963,-1.0649 -9.0921,-3.3515 -2.9937,-1.1611 -6.5262,-2.8743 -10.117,-4.2669 -3.3037,-1.2813 -6.8964,-2.9625 -10.2,-4.2438 -3.5905,-1.3926 -6.765,-2.5459 -9.7585,-3.7069 -5.8948,-2.2862 -10.552,-3.7411 -10.552,-3.7411 0,0 -1.9256,2.5342 -4.2095,6.9056 -1.1597,2.2197 -2.5372,5.0658 -3.9281,7.728 -1.2798,2.4495 -2.5607,5.3218 -3.8404,7.7713 -1.3909,2.6622 -3.3167,4.7324 -4.4763,6.9519 -2.2835,4.3706 -2.8628,7.67 -2.8628,7.67 0,0 0.24168,-3.3098 -0.0772,-8.0214 -0.15724,-2.3236 -1.1586,-5.0297 -1.3528,-7.9006 -0.17183,-2.5391 -0.0944,-4.8623 -0.27549,-7.5382 -0.18109,-2.6759 -0.57285,-5.0922 -0.74469,-7.6314 -0.1943,-2.8713 -0.39024,-5.9269 -0.54749,-8.2506 -0.31881,-4.7111 -0.32116,-8.5446 -0.32116,-8.5446 0,0 -3.3989,2.6713 -7.4398,6.1071 -2.0518,1.7446 -4.3261,3.9692 -6.787,6.0616 -2.2643,1.9252 -4.2626,3.8032 -6.5268,5.7284 -2.4609,2.0924 -5.5243,3.8501 -7.576,5.5945 -4.0402,3.4352 -6.0842,6.1273 -6.0842,6.1273 0,0 0.11344,-2.2645 -0.0416,-6.0618 -0.0787,-1.9282 -0.66763,-4.2674 -0.76206,-6.58 -0.0869,-2.1278 -0.88277,-4.8989 -0.96965,-7.0267 -0.0944,-2.3126 1.0111,-4.2152 0.93235,-6.1432 -0.15503,-3.7967 -1.592,-5.4857 -1.592,-5.4857 0,0 -1.7781,1.1308 -8.2538,4.7557 -3.1936,1.7877 -8.4858,4.5648 -12.432,6.7736 -3.4899,1.9536 -7.6381,3.4092 -11.316,5.468 -3.6779,2.0588 -8.0494,4.8674 -11.539,6.821 -3.9464,2.2091 -5.8212,4.0252 -9.0151,5.8131 -6.4751,3.6246 -11.323,5.9908 -11.323,5.9908 0,0 1.1916,-3.76 2.4476,-8.3981 0.63775,-2.3551 0.58093,-5.0456 1.3458,-7.8703 0.70379,-2.599 1.4734,-4.6174 2.1772,-7.2164 0.76491,-2.8246 2.2426,-5.6136 2.8803,-7.9686 1.2558,-4.6374 1.9184,-8.6042 1.9184,-8.6042 0,0 -3.7148,2.8489 -8.8127,6.4202 -2.5141,1.7613 -5.4757,4.206 -8.582,6.3822 -2.7474,1.9247 -5.5192,3.6189 -8.4145,5.6472 -2.8953,2.0283 -5.6433,2.874 -8.3907,4.7988 -3.1067,2.1765 -6.572,6.0148 -9.0863,7.7763 -5.0974,3.571 -8.8138,5.1606 -8.8138,5.1606 0,0 2.4797,-2.488 4.8607,-6.6321 1.1742,-2.0438 1.795,-4.2047 3.2458,-6.7299 1.2832,-2.2334 3.1113,-4.8763 4.4636,-7.23 1.3523,-2.3537 2.7269,-4.7023 4.0101,-6.9357 1.451,-2.5255 2.5624,-4.5251 3.7367,-6.569 2.3808,-4.1438 3.6174,-6.4331 3.6174,-6.4331 0,0 -3.5495,0.174 -10.606,1.8091 -3.48,0.80637 -8.7207,1.1099 -13.021,2.1062 -3.8029,0.88119 -7.445,2.5042 -11.453,3.4329 -4.008,0.9287 -7.523,1.4281 -11.326,2.3093 -4.3003,0.99646 -8.6421,2.3741 -12.122,3.1805 -7.0558,1.6349 -11.801,2.6124 -11.801,2.6124 0,0 4.0838,-2.6407 9.0512,-6.5281 2.6428,-2.0682 4.7565,-4.611 7.7618,-6.9629 3.0053,-2.3519 6.7846,-3.961 9.4277,-6.0294 4.9676,-3.8875 7.9745,-7.2241 7.9745,-7.2241 0,0 -3.897,0.23542 -11.301,1.0078 -3.6512,0.38093 -7.3572,1.0416 -11.869,1.5123 -3.99,0.41625 -9.4109,0.67703 -13.616,1.1157 -4.2051,0.43867 -8.1612,1.0356 -12.151,1.4519 -4.5119,0.47071 -9.3523,0.24797 -13.004,0.62893 -7.4029,0.77233 -12.572,1.9012 -12.572,1.9012 0,0 2.2771,-2.9301 6.6774,-6.549 2.1701,-1.7847 5.7674,-3.1574 8.4487,-5.3625 l 7.932,-6.5206 c 2.4992,-2.0554 4.6227,-4.0173 6.9942,-5.9676 2.6817,-2.2054 5.3691,-4.2299 7.5394,-6.0147 l 7.4439,-6.128 c 0,0 -6.0329,0.53188 -14.307,1.6383 -4.2013,0.56179 -9.1194,1.4744 -14.158,2.1482 -4.6364,0.61997 -8.8605,1.4327 -13.497,2.0527 -5.0389,0.6738 -10.863,1.557 -15.064,2.1187 -8.2727,1.1062 -13.96,1.1967 -13.96,1.1967 0,0 5.3142,-1.8542 12.225,-4.9253 3.5089,-1.5594 7.8576,-3.2235 12.066,-5.0939 3.8722,-1.7209 7.3534,-3.8391 11.226,-5.56 4.2084,-1.8703 8.8156,-2.9827 12.324,-4.542 6.9092,-3.0706 11.263,-5.6811 11.263,-5.6811 0,0 -5.1574,0.28223 -12.955,-0.10314 -3.8458,-0.19005 -8.5492,-0.67502 -13.301,-0.90984 -4.2026,-0.20769 -8.328,-0.9825 -12.757,-1.2014 -4.429,-0.2189 -9.6274,-0.21808 -13.83,-0.42576 -4.7523,-0.23485 -9.2895,-0.26719 -13.136,-0.45726 -7.7974,-0.38533 -12.912,-0.68055 -12.912,-0.68055 0,0 5.5617,-1.5463 13.078,-3.7737 3.634,-1.0769 7.3543,-2.0864 11.932,-3.4429 3.9534,-1.1716 8.7937,-2.8383 13.082,-4.1092 4.1239,-1.2221 8.4805,-1.8043 12.604,-3.0264 4.2891,-1.271 7.2231,-2.5974 11.177,-3.7692 4.578,-1.3566 10.324,-3.2141 13.959,-4.2912 7.5166,-2.2275 12.94,-3.3896 12.94,-3.3896 l -13.105,-0.776 c -3.486,-0.20718 -6.5677,-1.1346 -10.875,-1.3906 -3.8094,-0.2264 -7.931,-0.16733 -11.946,-0.40593 -4.015,-0.2386 -8.7249,0.35238 -12.534,0.12597 -4.3077,-0.25601 -8.4667,-1.0231 -11.953,-1.2303 -7.0679,-0.42005 -11.759,-0.78922 -11.759,-0.78922 0,0 4.4983,-1.2466 12.415,-3.6504 4.0201,-1.2206 9.701,-2.807 14.523,-4.2709 4.4364,-1.3469 8.5693,-2.9896 13.006,-4.3366 4.8216,-1.4639 9.3072,-2.7542 13.327,-3.9747 7.9158,-2.4033 14.128,-4.1006 14.128,-4.1006 0,0 -5.2682,-0.0217 -13.425,0.11 -4.1415,0.0669 -9.5446,0.76902 -14.512,0.84923 -4.5704,0.0738 -9.4559,-0.54786 -14.026,-0.47406 -4.9672,0.0802 -9.3122,0.2378 -13.454,0.30467 -8.155,0.13168 -13.728,0.79914 -13.728,0.79914 0,0 4.9402,-2.9861 12.363,-5.2402 3.9492,-1.1992 8.9285,-1.4836 13.419,-2.8474 4.4905,-1.3638 8.7009,-2.9294 12.651,-4.1288 7.423,-2.2541 13.205,-4.117 13.205,-4.117 0,0 -4.8095,-1.1117 -10.567,-4.104 -2.9234,-1.5194 -5.8403,-4.1776 -9.3465,-5.9999 -3.2261,-1.6767 -6.6457,-4.4456 -9.8717,-6.1222 -3.5062,-1.8223 -6.1042,-2.1795 -9.0274,-3.6988 -5.7563,-2.9918 -10.431,-5.6893 -10.431,-5.6893 0,0 5.5072,0.77416 12.619,0.7809 3.6109,0.003 7.3338,-0.41546 11.665,-0.41136 3.9848,0.004 9.183,-0.33746 13.168,-0.33368 4.3308,0.004 7.4086,0.76895 11.019,0.77237 7.1101,0.007 12.689,0.20927 12.689,0.20927 0,0 -5.1091,-2.2319 -11.423,-4.4545 -3.359,-1.1825 -6.8364,-2.9496 -10.656,-4.2943 -3.8196,-1.3447 -8.3125,-2.1623 -11.672,-3.3449 -6.3138,-2.2227 -10.804,-4.0314 -10.804,-4.0314 0,0 5.8032,-0.36605 13.059,-0.6373 3.5781,-0.13378 6.9832,-0.4556 11.404,-0.62089 3.91,-0.14618 8.0772,0.0598 12.198,-0.0943 4.1208,-0.15405 8.3297,-0.22567 12.24,-0.37185 4.4216,-0.16531 8.2848,-0.40368 11.863,-0.53746 7.2546,-0.27123 13.028,-0.30208 13.028,-0.30208 0,0 -3.0637,-3.0416 -6.0885,-6.8241 -1.4917,-1.8654 -2.4589,-3.2863 -4.302,-5.5912 -1.6301,-2.0384 -3.7736,-4.6347 -5.4915,-6.7829 -1.7179,-2.1482 -3.086,-3.7926 -4.7161,-5.8311 -1.8434,-2.3051 -3.5488,-5.154 -5.0407,-7.0195 -3.0245,-3.7821 -5.9742,-6.1705 -5.9742,-6.1705 0,0 4.1768,1.2346 10.49,3.1081 3.1135,0.92397 7.6991,2.0389 11.546,3.1805 3.4024,1.0097 6.5225,1.8273 10.108,2.8914 3.5855,1.0641 7.1754,2.1825 10.578,3.1922 3.8474,1.1418 7.5425,2.4071 10.656,3.3312 6.3127,1.8734 10.484,3.2151 10.484,3.2151 0,0 -2.4872,-2.9354 -5.9179,-6.7958 -1.8253,-2.0539 -3.857,-4.5959 -5.9326,-6.9314 -2.0756,-2.3355 -3.5347,-4.5304 -5.3602,-6.5845 -3.4309,-3.8605 -6.7289,-6.6666 -6.7289,-6.6666 0,0 4.9607,0.94799 12.069,1.5666 3.5057,0.30508 7.3121,0.30362 11.644,0.68056 3.8309,0.33339 7.5875,0.86 11.625,1.2114 4.0375,0.3514 9.2533,0.30799 13.084,0.64138 4.3321,0.37699 6.8244,1.0429 10.33,1.348 7.1078,0.61857 12.219,0.86748 12.219,0.86748 0,0 -1.9111,-2.7708 -5.031,-6.395 -1.6599,-1.9282 -3.2739,-4.5452 -5.1615,-6.7379 -1.8876,-2.1927 -5.0673,-3.89 -6.7274,-5.8185 -3.1201,-3.6243 -4.8811,-5.9346 -4.8811,-5.9346 0,0 4.1396,0.52572 10.132,2.3009 3.0425,0.90138 7.46,2.9028 11.109,3.9839 3.3576,0.99471 6.4592,1.2164 9.8168,2.2111 3.6491,1.0811 7.1028,2.1333 10.145,3.0346 5.9909,1.7749 10.37,3.095 10.37,3.095 0,0 -0.22389,-3.4514 0.0117,-7.8432 0.11965,-2.2301 0.7617,-4.553 0.90521,-7.2277 0.13202,-2.461 0.19379,-5.1121 0.32582,-7.5731 0.14351,-2.6746 -0.028,-5.117 0.0916,-7.3469 0.23558,-4.3911 0.5709,-7.4602 0.5709,-7.4602 0,0 2.325,3.1435 5.0798,6.8 1.6094,2.1362 3.2281,4.502 4.8375,6.6382 2.7548,3.6565 5.0118,6.1534 5.0118,6.1534 0,0 2.75,-2.4429 6.7209,-6.622 1.9583,-2.061 4.6699,-4.2207 7.0896,-6.7673 2.14,-2.2522 3.0902,-4.7146 5.3454,-7.0882 2.2552,-2.3736 5.6611,-4.4527 7.8011,-6.705 2.4199,-2.5469 4.8457,-5.2572 6.8042,-7.3184 3.9705,-4.1788 5.133,-6.6816 5.133,-6.6816 0,0 0.99165,1.8779 3.1293,5.6531 1.0854,1.9169 3.6386,4.3801 4.9404,6.6792 1.1978,2.1154 3.5036,4.3368 4.7014,6.4522 1.3018,2.2991 2.0232,4.6796 3.1086,6.5963 2.1372,3.7745 3.2977,6.4628 3.2977,6.4628 0,0 1.4784,-2.6855 3.7841,-6.8248 1.1708,-2.1018 2.5632,-4.4494 3.9674,-6.9702 1.292,-2.3194 2.7034,-4.9117 3.9953,-7.2311 1.4042,-2.5208 3.6392,-5.4123 4.8099,-7.5139 2.3053,-4.1385 3.4088,-6.9245 3.4088,-6.9245 0,0 2.7943,2.3572 6.076,5.9143 1.6184,1.7542 3.0121,3.6243 5.0118,5.7918 1.7686,1.917 3.1267,4.312 4.9905,6.3322 1.8638,2.0202 3.7841,4.0284 5.5528,5.9454 2,2.1678 3.9338,3.9135 5.5524,5.6679 l 5.2498,5.6935 c 0,0 3.2927,-1.9566 7.7276,-5.5987 2.2519,-1.8493 5.6251,-4.483 8.326,-6.701 2.4851,-2.0408 3.8916,-3.5609 6.3767,-5.6017 2.7009,-2.218 5.0368,-4.4854 7.2886,-6.3346 4.4342,-3.6414 9.1,-6.3471 9.1,-6.3471 0,0 -2.4352,3.4337 -5.3173,7.8776 -1.5334,2.3644 -3.1021,5.068 -4.8457,7.7566 -1.7436,2.6886 -3.4955,5.2838 -5.029,7.6484 -2.8821,4.4441 -5.2338,7.9582 -5.2338,7.9582 0,0 4.2687,-2.2499 10.266,-5.5696 3.0451,-1.6856 5.3486,-4.0419 9.0008,-6.0636 3.3604,-1.8602 8.0212,-3.8601 11.382,-5.7202 3.6521,-2.0217 6.2708,-3.5782 9.3156,-5.2637 5.9959,-3.3191 10.597,-5.7904 10.597,-5.7904 0,0 -0.75413,3.3777 -0.0114,7.5328 0.3663,2.0492 2.0876,3.873 2.5402,6.4049 0.40029,2.2393 -0.32066,4.7559 0.10119,7.1158 0.42185,2.3599 2.0054,4.6543 2.4057,6.8937 0.45265,2.5322 0.74901,4.4383 1.1153,6.4877 0.7427,4.1548 2.5077,6.7537 2.5077,6.7537 0,0 4.2607,-1.6342 11.853,-4.1615 4.0393,-1.3446 8.7883,-2.3693 13.382,-3.8984 4.5937,-1.5291 9.1564,-3.4104 13.196,-4.7552 7.5924,-2.5274 11.977,-4.4327 11.977,-4.4327 0,0 -1.7744,3.4709 -6.3272,7.8383 -2.3117,2.2176 -5.107,4.5486 -7.8797,7.2084 -2.5511,2.4473 -4.9541,4.6072 -7.5052,7.0544 -2.7726,2.6598 -5.1441,5.6249 -7.4557,7.8424 -4.552,4.3666 -7.6721,7.4493 -7.6721,7.4493 0,0 3.9122,-1.5162 11.177,-3.9144 3.5125,-1.1595 7.8732,-2.5333 12.298,-3.9938 3.8212,-1.2614 7.938,-2.6536 12.083,-4.0219 l 11.921,-3.9406 c 4.1457,-1.3685 9.1658,-2.3635 12.988,-3.625 4.4249,-1.4606 7.5548,-2.8718 11.068,-4.0314 7.2652,-2.3982 11.922,-4.4352 11.922,-4.4352 0,0 -2.3318,2.1737 -7.4902,5.6298 -2.544,1.7044 -6.3402,3.4452 -9.4834,5.5512 -2.78,1.8626 -5.651,4.3044 -8.5807,6.2673 -2.9297,1.9629 -6.0794,4.0402 -8.8594,5.9028 -3.1436,2.1062 -6.2794,4.0587 -8.8236,5.7633 -5.1579,3.4558 -7.5836,5.8278 -7.5836,5.8278 0,0 4.5282,-0.6167 11.618,-1.4464 l 11.509,-1.356 c 3.973,-0.46492 8.1775,-0.92155 12.15,-1.3865 4.3179,-0.5053 8.1776,-1.06 11.778,-1.4813 7.089,-0.82958 12.348,-1.3565 12.348,-1.3565 0,0 -3.3879,2.3456 -7.9002,5.4073 -2.4007,1.629 -5.0772,3.0839 -7.8073,4.9363 -2.7301,1.8524 -5.1444,3.7317 -7.5455,5.3608 -4.5125,3.0619 -8.1494,6.0024 -8.1494,6.0024 0,0 4.7004,-0.46427 11.434,-1.7502 3.4192,-0.65292 6.3952,-2.0608 10.496,-2.8439 3.7733,-0.72054 8.7395,-1.8484 12.513,-2.5689 4.1009,-0.7831 7.9323,-1.3206 11.351,-1.9735 6.7326,-1.2856 11.723,-2.1936 11.723,-2.1936 0,0 -3.726,1.9025 -8.8378,5.0282 -2.5956,1.5872 -4.5505,4.3873 -7.6636,6.2909 -2.8644,1.7515 -6.0986,3.0442 -8.963,4.7956 -3.1131,1.9036 -6.7397,3.5901 -9.3352,5.1772 -5.1109,3.1252 -9.1605,4.8923 -9.1605,4.8923 0,0 4.0751,0.019 11.637,0.35704 3.7292,0.16674 9.3249,0.82534 13.933,1.0314 4.0752,0.18221 8.4125,0.47821 12.707,0.67022 4.2945,0.19201 8.6901,0.36403 12.765,0.54622 4.6083,0.20604 9.7735,-0.16265 13.503,0.004 7.5611,0.33805 10.809,1.4847 10.809,1.4847 0,0 -4.0237,2.017 -10.429,5.0471 -3.2526,1.5386 -8.3628,2.514 -12.264,4.3594 -3.5894,1.6979 -5.8538,4.3795 -9.4431,6.0774 -3.901,1.8454 -7.3756,3.8883 -10.628,5.4268 -6.4045,3.0296 -10.848,3.9673 -10.848,3.9673 0,0 5.9294,0.97524 14.258,1.2908 4.2291,0.16021 9.6104,-0.22379 14.683,-0.0316 4.6671,0.17679 9.087,0.66825 13.754,0.84505 5.0723,0.19216 9.8036,-0.66732 14.032,-0.50712 8.3274,0.31547 13.375,1.5039 13.375,1.5039 0,0 -5.2143,1.8158 -13.153,3.9874 -4.0312,1.1027 -7.4939,2.2858 -12.329,3.6083 -4.4486,1.2168 -9.9146,1.6874 -14.363,2.9042 -4.8348,1.3225 -9.4964,3.3199 -13.527,4.4225 -7.9376,2.1712 -13.403,3.9896 -13.403,3.9896 0,0 3.4745,1.1078 8.3112,3.5472 2.4559,1.2387 5.7182,3.0781 8.6638,4.5638 2.7102,1.3669 4.5092,3.3361 7.2194,4.703 2.9456,1.4856 6.1116,2.0662 8.5673,3.3048 4.8359,2.439 8.3141,3.7077 8.3141,3.7077 0,0 -5.664,0.72879 -13.615,0.85893 -4.2303,0.0692 -9.139,0.5123 -13.95,0.59104 -4.811,0.0787 -9.547,-0.2078 -13.778,-0.13854 -7.9515,0.13014 -13.438,0.46503 -13.438,0.46503 0,0 2.9379,1.7523 8.6734,4.5124 2.9123,1.4015 6.3015,2.2124 9.7944,3.8934 3.2139,1.5466 6.7513,4.0554 9.9651,5.602 3.4929,1.6809 6.399,3.1263 9.3111,4.5277 5.7345,2.7596 9.6126,4.6488 9.6126,4.6488 0,0 -4.5352,-0.35507 -11.627,-0.71938 -3.773,-0.19383 -9.3332,-0.30282 -13.624,-0.52323 -4.2908,-0.22041 -7.4763,-0.43291 -11.25,-0.62676 -7.0919,-0.36432 -12.18,-0.55447 -12.18,-0.55447 0,0 2.0595,2.5477 4.6064,6.7583 1.2933,2.138 2.7959,4.9291 4.347,7.4934 1.4272,2.3594 2.7202,5.1667 4.1474,7.526 1.5511,2.5642 3.0585,4.6393 4.3517,6.7772 2.5465,4.2098 4.724,7.1018 4.724,7.1018 0,0 -5.1176,-0.62213 -11.281,-1.6122 -3.279,-0.52678 -6.6679,-1.2423 -10.397,-1.8413 -3.7291,-0.599 -7.4591,-1.0159 -10.738,-1.5428 -6.1632,-0.99015 -11.186,-1.0798 -11.186,-1.0798 0,0 2.2884,2.3204 3.967,6.6575 0.8931,2.3075 1.3274,5.0225 2.343,7.6464 1.0156,2.6239 1.8338,5.1996 2.727,7.5073 1.6787,4.3372 2.9862,7.7088 2.9862,7.7088 l -0.0825,0.0176"
         inkscape:connector-curvature="0"
         style="fill:none;stroke:#1a1a1a;stroke-width:3.9210999" />
      <g
         id="g28"
         style="opacity:0.90909998;fill:#d40000">
        <path
           id="path30"
           d="m 823.21,137.34 c -17.277,1.6539 -33.316,9.0823 -49.687,14.395 -4.9336,4.3774 -2.0502,12.398 -3.4093,18.372 -1.5192,26.837 -4.3736,53.774 -6.2819,80.591 1.1626,7.3694 10.201,4.975 15.089,3.5671 22.3,-5.739 43.7,-19.283 55.464,-39.459 4.5358,-7.7306 6.6972,-21.615 -3.5671,-25.759 -3.151,-1.0924 -6.564,-1.1865 -9.849,-0.82075 9.9757,-10.856 21.414,-24.191 19.603,-39.901 -1.3982,-8.0961 -9.9539,-11.571 -17.362,-10.985 z m -12.311,32.199 c 2.2186,0.31178 -1.1456,4.1703 -1.5468,5.3664 -2.6071,3.8834 -5.8958,7.1252 -9.3439,10.291 1.1818,-4.3234 0.78855,-9.8181 3.062,-13.479 2.5077,-0.94658 5.0974,-2.0359 7.8287,-2.1781 z m 0.53665,37.155 c 3.5152,-0.45159 0.49154,3.7968 -0.69448,4.8298 -4.2931,4.1513 -9.6385,6.9515 -14.931,9.5964 0.51419,-3.4406 0.0275,-7.995 1.8309,-10.764 4.429,-1.6908 9.0096,-3.3447 13.795,-3.6618 z"
           transform="matrix(1.0413,0,0,1.0413,-155.68,316.23)"
           inkscape:connector-curvature="0" />
        <path
           id="path32"
           d="m 918.41,127.71 c -15.516,2.6314 -31.163,5.6684 -46.338,9.5119 -4.6481,4.9043 -4.9956,13.013 -8.0065,19.163 -10.212,27.777 -21.925,54.989 -34.391,81.842 -1.5852,6.2595 6.3572,5.9738 10.166,4.5774 8.3706,-2.1433 17.64,-2.0781 25.379,-5.84 2.7815,-4.545 0.77056,-13.343 8.3067,-12.624 5.5753,-2.07 -0.25005,7.7386 0.50053,10.604 -0.89981,6.9733 7.0786,5.0884 11.054,3.5637 7.9449,-2.7354 17.098,-2.9284 24.364,-7.1308 4.0306,-6.8524 1.764,-15.544 3.1462,-23.163 1.4202,-25.699 5.3658,-51.27 10.049,-76.495 0.13481,-2.1243 -2.1673,-4.2443 -4.23,-4.009 z m -35.45,57.326 c -1.319,5.1474 -1.5898,11.45 -3.4724,16.005 -6.0801,2.0944 0.56709,-7.2964 0.41669,-10.407 1.637,-5.2562 3.3006,-10.508 4.9497,-15.762 l -1.894,10.165 z"
           transform="matrix(1.0413,0,0,1.0413,-155.68,316.23)"
           inkscape:connector-curvature="0" />
        <path
           id="path34"
           d="m 1012.3,137.09 c -6.337,2.2638 -14.777,1.0546 -19.603,6.0294 -3.4865,9.8833 -6.9024,19.799 -10.417,29.673 1.15,-10.208 3.9787,-21.323 3.5987,-31.157 -2.4954,-5.8978 -10.212,-1.3334 -14.931,-1.3574 -8.5066,2.109 -17.845,2.2404 -25.696,6.0294 -9.3405,31.506 -20.647,62.488 -34.156,92.492 -2.7302,3.4645 -1.0163,9.9473 3.9459,8.7441 9.4988,-1.3124 19.455,-2.1512 28.432,-5.2166 5.1488,-10.201 7.6912,-22.167 11.852,-33.035 2.6713,-7.8974 5.3528,-15.794 8.1396,-23.652 -2.9601,20.854 -7.5163,41.622 -9.6912,62.503 2.2192,6.5924 10.305,1.9589 14.964,1.6319 8.2875,-0.38417 7.3365,-10.847 10.453,-16.41 4.3314,-12.401 8.596,-24.831 12.969,-37.214 -1.6879,13.477 -3.751,26.931 -4.8298,40.469 1.738,6.8677 9.866,2.5113 14.595,2.1961 6.6561,-1.7785 14.053,-2.1341 20.034,-5.7001 3.4811,-7.0954 0.9739,-15.659 2.3171,-23.323 1.3637,-24.435 5.7762,-48.742 8.9641,-72.903 -2.2856,-6.7653 -11.038,-0.74635 -16.11,-0.80553 l -4.8311,1.0046 z"
           transform="matrix(1.0413,0,0,1.0413,-155.68,316.23)"
           inkscape:connector-curvature="0" />
        <path
           id="path36"
           d="m 1069.6,114.86 c -6.9453,17.548 -11.674,36.152 -17.738,54.114 -1.3178,6.328 -5.271,12.38 -4.864,18.87 3.5603,5.6662 11.755,2.7151 17.33,3.0936 8.031,0.52355 9.0423,-9.3702 11.806,-14.71 7.3638,-18.98 17.796,-36.625 27.369,-54.517 2.0202,-6.7055 -6.6101,-6.4277 -10.825,-6.6954 -7.6148,0.0437 -15.727,-1.9748 -23.078,-0.15466 z"
           transform="matrix(1.0413,0,0,1.0413,-155.68,316.23)"
           inkscape:connector-curvature="0" />
        <path
           id="path38"
           d="m 1055.9,203.19 c -10.754,0.5667 -21.458,7.6572 -25.854,17.488 -2.4073,7.1859 4.4991,14.248 11.743,12.438 11.893,-0.77916 25.672,-8.3336 27.369,-21.087 0.051,-6.9496 -7.5266,-9.2787 -13.258,-8.8388 z"
           transform="matrix(1.0413,0,0,1.0413,-155.68,316.23)"
           inkscape:connector-curvature="0" />
      </g>
      <path
         id="path40"
         d="m 646.86,485.03 c 3.5343,-1.0554 10.125,-3.4336 19.772,-7.1347 8.34,-3.0994 15.06,-5.302 20.16,-6.6076 2.0039,-0.41818 3.9564,-0.77914 5.8573,-1.0829 14.76,-2.3576 22.497,1.0211 23.212,10.136 1.1687,12.872 -6.8318,27.208 -24.001,43.01 11.456,-2.5172 18.364,-0.77327 20.724,5.2316 0.45841,1.3014 0.75356,2.6779 0.88544,4.1296 0.65899,7.2586 -2.6987,15.257 -10.073,23.995 -5.6316,6.6925 -12.778,12.94 -21.44,18.742 -10.372,6.9588 -22.603,11.563 -36.692,13.814 -2.2364,0.35724 -4.4772,0.66608 -6.7223,0.92654 2.5595,-20.537 4.9468,-47.968 7.1619,-82.294 0.70431,-9.7345 1.09,-17.356 1.157,-22.865 m 23.263,57.551 c -0.56064,3.8206 -1.0586,8.9566 -1.4937,15.408 15.389,-6.68 22.841,-12.682 22.358,-18.005 -0.17579,-1.9356 -2.2205,-2.5908 -6.1342,-1.9657 -3.4664,0.55376 -8.3765,2.0745 -14.73,4.5621 m 5.6926,-40.38 c -0.60459,3.3368 -1.1532,6.6645 -1.646,9.9832 l -1.4782,9.9564 c 7.7673,-5.659 13.125,-11.62 16.073,-17.884 0.66846,-1.3831 0.96755,-2.4618 0.8973,-3.2361 -0.14944,-1.6452 -1.6778,-2.2356 -4.585,-1.7713 -2.2364,0.35732 -5.3234,1.3414 -9.261,2.9521 m 29.988,75.516 c 18.124,-37.766 33.051,-74.027 44.78,-108.78 l 51.444,-10.422 c -7.1604,30.089 -11.371,65.447 -12.631,106.07 l -35.964,9.247 3.3462,-18.558 -11.35,2.5562 -4.1109,13.164 -35.516,6.7235 m 54.55,-42.337 10.227,-56.124 -0.16812,0.01 -18.355,57.909 8.2971,-1.7947 m 28.36,46.705 c 16.634,-34.448 29.709,-69.282 39.223,-104.5 l 40.437,-8.0322 -8.1366,54.389 17.871,-50.829 38.931,-8.0934 c -6.0288,32.278 -9.6191,61.282 -10.771,87.012 -0.22875,5.1069 -0.39915,10.161 -0.51123,15.164 l -34.701,7.2649 8.9411,-64.867 -25.222,72.7 -18.592,3.2623 15.159,-91.376 -27.474,81.791 -35.153,6.1151 m 149.3,-43.812 c 3.9257,-0.84724 7.4028,-0.67479 10.431,0.51737 3.5892,1.239 5.3838,3.5224 5.3838,6.8504 0,4.5026 -2.748,8.8642 -8.244,13.085 -4.2622,3.325 -8.9171,5.5112 -13.964,6.5586 -4.0379,0.85749 -7.515,0.78293 -10.431,-0.22371 -3.4771,-1.2492 -5.2156,-3.5378 -5.2156,-6.8658 10e-6,-4.5026 2.6359,-8.9029 7.9075,-13.201 4.2622,-3.4229 8.9731,-5.6631 14.133,-6.7208 m 19.012,-93.058 35.163,1.9335 c -9.3097,15.433 -16.152,27.46 -20.526,36.081 -5.9448,11.798 -11.216,24.465 -15.815,38.001 l -23.386,1.2509 24.564,-77.266"
         inkscape:connector-curvature="0"
         style="opacity:0.91739999;fill:none;stroke:#000000;stroke-width:3.12380004" />
    </g>
  </g>
</svg>
